<mxfile host="app.diagrams.net" modified="2024-06-20T08:18:51.057Z" agent="Mozilla/5.0 (Macintosh; Intel Mac OS X 10_15_7) AppleWebKit/537.36 (KHTML, like Gecko) Chrome/126.0.0.0 Safari/537.36" version="24.5.5" etag="4EOtYDTXy1s1FR7rUUME" type="github">
  <diagram name="PÃ¡gina-1" id="tHQ9GwgwnrC45rGpVrao">
    <mxGraphModel>
      <root>
        <mxCell id="0" />
        <mxCell id="1" parent="0" />
      </root>
    </mxGraphModel>
  </diagram>
</mxfile>
